<?xml version="1.0" encoding="UTF-8" standalone="no"?>
<svg
   viewBox="0 0 512 512"
   version="1.1"
   id="svg12"
   sodipodi:docname="arrow-top.svg"
   inkscape:version="1.2.2 (732a01da63, 2022-12-09)"
   xmlns:inkscape="http://www.inkscape.org/namespaces/inkscape"
   xmlns:sodipodi="http://sodipodi.sourceforge.net/DTD/sodipodi-0.dtd"
   xmlns="http://www.w3.org/2000/svg"
   xmlns:svg="http://www.w3.org/2000/svg">
  <defs
     id="defs16" />
  <sodipodi:namedview
     id="namedview14"
     pagecolor="#505050"
     bordercolor="#eeeeee"
     borderopacity="1"
     inkscape:showpageshadow="0"
     inkscape:pageopacity="0"
     inkscape:pagecheckerboard="0"
     inkscape:deskcolor="#505050"
     showgrid="false"
     inkscape:zoom="1.6035156"
     inkscape:cx="123.47869"
     inkscape:cy="253.50549"
     inkscape:window-width="1920"
     inkscape:window-height="986"
     inkscape:window-x="-11"
     inkscape:window-y="1609"
     inkscape:window-maximized="1"
     inkscape:current-layer="svg12" />
  <path
     d="M8 256C8 119 119 8 256 8s248 111 248 248-111 248-248 248S8 393 8 256zm292 116V256h70.9c10.7 0 16.1-13 8.5-20.5L264.5 121.2c-4.7-4.7-12.2-4.7-16.9 0l-115 114.3c-7.6 7.6-2.2 20.5 8.5 20.5H212v116c0 6.6 5.4 12 12 12h64c6.6 0 12-5.4 12-12z"
     id="path10"
     style="fill:#00ffff;fill-opacity:1" />
  <path
     style="fill:#ffffff;fill-opacity:1;stroke-width:0.62363"
     d="m 219.20585,382.49777 c -1.02899,-0.54151 -2.64923,-1.71163 -3.60054,-2.60027 -3.62322,-3.38454 -3.57121,-2.42317 -3.57121,-66.01312 v -58.19619 h -36.50236 c -38.81218,0 -38.986,-0.0123 -42.27442,-2.98603 -3.42112,-3.09375 -4.74251,-9.72215 -2.71843,-13.63629 1.63313,-3.15813 118.22269,-118.72767 121.0957,-120.03626 1.37199,-0.62491 3.33642,-1.1362 4.36541,-1.1362 4.90215,0 5.38802,0.44887 65.99504,60.96956 32.18131,32.13547 58.94402,59.24856 59.47269,60.2513 1.98732,3.76945 0.62598,10.55753 -2.72505,13.58789 -3.28842,2.97375 -3.46224,2.98603 -42.27442,2.98603 H 299.9659 v 58.19619 c 0,63.58957 0.0521,62.62526 -3.57121,66.01602 -4.02694,3.76842 -2.51893,3.63417 -40.51963,3.60691 -30.46546,-0.0219 -35.03127,-0.14756 -36.66921,-1.00954 z"
     id="path10273" />
  <path
     style="fill:#00acda;fill-opacity:1;stroke-width:0.62363"
     d="M 245.39829,503.52059 C 197.2226,500.64665 156.91255,487.39876 118.48965,461.8121 104.6593,452.60216 93.579038,443.47053 81.037957,430.94685 40.18409,390.14966 15.942526,339.31232 9.5833811,281.09841 c -1.400986,-12.82513 -1.400986,-37.37169 0,-50.19682 C 14.94667,181.80411 32.626441,138.91388 63.375591,100.40438 71.991416,89.614131 89.614131,71.991416 100.40438,63.375591 139.52814,32.135956 183.00124,14.473545 233.54933,9.2809639 c 10.88288,-1.1179492 36.03814,-0.9616718 47.50809,0.2951446 49.24721,5.3962515 91.93685,22.9910065 130.5382,53.8019935 10.78555,8.608855 28.40919,26.231302 37.02879,37.026278 25.66098,32.13719 42.36499,67.78241 50.26606,107.26432 11.38546,56.89354 2.05777,117.33088 -25.86322,167.57674 -39.7408,71.51644 -110.57543,118.58797 -191.19166,127.05203 -8.69273,0.91267 -29.77725,1.62043 -36.4373,1.22312 z m 49.4564,-121.39218 c 1.42563,-0.94362 3.22902,-2.90805 4.00754,-4.36541 l 1.41548,-2.64972 0.174,-59.40073 0.174,-59.40074 36.30834,-0.0474 c 26.22869,-0.0343 36.87151,-0.25173 38.33698,-0.78331 2.68814,-0.97508 5.7269,-3.91064 6.86314,-6.63005 1.2357,-2.95745 1.15893,-7.44308 -0.17551,-10.25521 -1.11439,-2.3484 -117.44369,-118.38832 -120.2043,-119.90528 -2.26879,-1.2467 -6.28063,-1.60639 -9.18732,-0.8237 -2.44796,0.65917 -8.67197,6.63513 -62.09722,59.62242 -37.27402,36.96846 -59.77934,59.73859 -60.45856,61.16996 -2.31262,4.87349 -0.7084,12.00471 3.3733,14.99523 3.54645,2.59836 4.47769,2.65738 41.93036,2.65738 h 36.05937 l 0.174,59.40073 0.174,59.40073 1.38905,2.59791 c 1.38296,2.58652 3.70092,4.6506 6.49685,5.78526 0.88696,0.35995 15.56437,0.54681 37.0615,0.47181 l 35.59296,-0.12416 2.59204,-1.71568 z"
     id="path10344" />
  <path
     style="fill:#00ff00;stroke-width:0.62363"
     d="m 239.162,502.83109 c -7.07344,-0.48384 -23.67638,-2.82869 -32.42874,-4.57996 -34.44446,-6.89202 -66.14569,-20.8296 -95.72717,-42.08686 C 89.676564,440.83687 68.692047,419.49516 53.200588,397.37481 30.053909,364.32352 16.233467,328.38892 10.494199,286.33371 8.7056042,273.22756 8.5350681,240.56062 10.18934,227.93667 14.073326,198.2975 21.046462,174.18638 32.802429,149.74701 43.755642,126.97647 56.09474,108.6138 72.832413,90.175587 115.98874,42.634601 174.03674,14.242243 238.22656,9.2782205 c 11.06984,-0.8560694 35.28759,-0.323686 46.1486,1.0144935 48.40584,5.964061 90.9866,24.077225 128.57838,54.695158 9.31207,7.584531 27.37015,25.746905 34.90869,35.110298 37.64979,46.76361 56.77565,102.92864 55.21287,162.13813 -0.96096,36.4077 -8.675,68.48199 -24.22278,100.7162 -12.4613,25.83519 -27.53221,46.94906 -48.54203,68.00581 -47.51191,47.61804 -109.9209,72.92236 -178.05206,72.1929 -5.48795,-0.0587 -11.38125,-0.20281 -13.09623,-0.32012 z m 56.02803,-120.62728 c 1.30253,-1.07365 3.05027,-3.03251 3.88387,-4.35301 l 1.51563,-2.40092 0.007,-57.23042 c 0.004,-31.47673 0.17944,-58.27433 0.39035,-59.55021 l 0.3835,-2.31981 36.97426,-0.17471 L 375.3189,256 l 2.64805,-1.87089 c 1.45643,-1.02898 3.21093,-2.96037 3.89889,-4.29196 1.62155,-3.13866 1.69836,-8.92322 0.15144,-11.40552 -0.60465,-0.97028 -27.56276,-28.21585 -59.9069,-60.54571 -39.68019,-39.66267 -59.53223,-59.08436 -61.03568,-59.71255 -3.77406,-1.5769 -7.91808,-1.22024 -10.89729,0.93789 -4.00256,2.89945 -37.68143,35.88594 -80.96085,79.29646 -43.81574,43.94846 -41.57538,41.25174 -40.11499,48.28638 0.77182,3.71786 2.79371,6.57313 5.83278,8.23695 1.77063,0.96938 5.38682,1.08564 38.82099,1.24808 l 36.86848,0.17913 0.39339,2.87016 c 0.21638,1.57858 0.39341,28.3742 0.39341,59.5458 v 56.67566 l 1.48446,2.32622 c 1.82065,2.85306 3.93765,4.85706 5.99941,5.6792 0.96871,0.38627 15.25593,0.63652 37.7431,0.66108 l 36.18434,0.0395 2.36824,-1.9521 z"
     id="path804" />
</svg>
